# xmcd
#
# Track frame offsets:
#	150
#	16157
#	28986
#	47493
#	70559
#	85428
#	99488
#	115846
#	130100
#	142655
#	159840
#	178606
#	195375
#	212440
#	229873
#
# Disc length: 3318 seconds
#
# Revision: 1
# Processed by: cddbd v1.5.2PL0 Copyright (c) Steve Scherf et al.
# Submitted via: audiograbber 1.83.01
#
DISCID=b50cf40f
DTITLE=Various Artist - Country Heat 2012
DYEAR=2011
DGENRE=Country
TTITLE0=Blake Shelton - Honey Bee
TTITLE1=Jake Owen - Barefoot Blue Jean Night
TTITLE2=Kenny Chesney - You And Tequila (feat.Grace Potter)
TTITLE3=Sara Evans - A Little Bit Stronger
TTITLE4=Johnny Reid - You Gave My Heart A home
TTITLE5=Thompson Square - I Got You
TTITLE6=Kira Isabella - Love Me Like That
TTITLE7=Ryan Laird - I'm Your Man
TTITLE8=Terri Clark - We're Here For A Good Time
TTITLE9=Aaron Pritchett - Light It Up
TTITLE10=Emerson Drive - Let You Love Speak
TTITLE11=Chris Young - Tomorrow
TTITLE12=Justin Moore - If Heaven Wasn't So Far Away
TTITLE13=Ronnie Dunn - Bleed Red
TTITLE14=Brad Paisley - Remind Me (duet w. Carrie Underwood)
EXTD=
EXTT0=
EXTT1=
EXTT2=
EXTT3=
EXTT4=
EXTT5=
EXTT6=
EXTT7=
EXTT8=
EXTT9=
EXTT10=
EXTT11=
EXTT12=
EXTT13=
EXTT14=
PLAYORDER=
